# xmcd
#
# Track frame offsets: 
#        150
#        16920
#        33149
#
# Disc length: 667 seconds
#
# Revision: 0
# Processed by: cddbd v1.5.2PL0 Copyright (c) Steve Scherf et al.
# Submitted via: ExactAudioCopy v0.99pb5
#
DISCID=14029903
DTITLE=Juliane Werding - Daisy
DYEAR=2001
DGENRE=Pop
TTITLE0=Daisy
TTITLE1=Es gibt kein zurück
TTITLE2=Der Engel neben mir
EXTD=
EXTT0=
EXTT1=
EXTT2=
PLAYORDER=
